<?xml version="1.0" encoding="UTF-8"?>
<svg version="1.1" xmlns="http://www.w3.org/2000/svg" width="722" height="661">
<path d="M0 0 C238.26 0 476.52 0 722 0 C722 218.13 722 436.26 722 661 C483.74 661 245.48 661 0 661 C0 442.87 0 224.74 0 0 Z " fill="#FEFEFE" transform="translate(0,0)"/>
<path d="M0 0 C0.91362305 0.42321533 0.91362305 0.42321533 1.84570312 0.85498047 C16.75490711 7.79179976 29.17143725 16.59753821 41 28 C41.72960937 28.66644531 42.45921875 29.33289063 43.2109375 30.01953125 C54.5046218 40.62130999 62.35414174 55.17896733 69 69 C64.76126984 74.64612103 54.60212378 75.80399988 48 77 C33.55331216 78.72401817 17.63620693 76.83940622 4.75073242 69.86914062 C2.55498037 68.77907267 0.4246923 68.30308654 -2 68 C-1.401875 69.134375 -0.80375 70.26875 -0.1875 71.4375 C5.50322755 83.0619755 7.05075782 94.44426459 3 107 C25.34423835 107.03389893 46.68248168 105.7982608 64.875 91.4375 C65.95394531 90.60025391 65.95394531 90.60025391 67.0546875 89.74609375 C69.08276713 88.04433725 69.08276713 88.04433725 70.6328125 85.78515625 C71.08398438 85.19605469 71.53515625 84.60695313 72 84 C72.66 84 73.32 84 74 84 C74 84.66 74 85.32 74 86 C74.54785156 86.13535156 75.09570312 86.27070313 75.66015625 86.41015625 C80.89224421 87.83090209 85.69651233 89.70408901 90.58984375 92.0390625 C91.92328459 92.67000435 93.25721483 93.29991261 94.59155273 93.92895508 C95.30286346 94.26448395 96.01417419 94.60001282 96.74703979 94.94570923 C104.29558356 98.47811074 111.90640241 101.87838404 119.5 105.3125 C120.42520447 105.7314151 121.35040894 106.1503302 122.3036499 106.5819397 C132.87586695 111.36754634 143.45893423 116.11419564 154.125 120.6875 C161.57882534 123.8866246 168.85259169 127.32100398 176.0703125 131.01953125 C179.59246851 132.81631281 183.16441834 134.48866271 186.75244141 136.14916992 C209.81042562 146.84771395 232.9257976 159.30094428 253 175 C254.010625 175.7734375 255.02125 176.546875 256.0625 177.34375 C263.72333795 183.36297982 263.72333795 183.36297982 264.9296875 186.140625 C264.95289063 186.75421875 264.97609375 187.3678125 265 188 C262.47277377 190.52722623 260.88816856 190.2476924 257.4401741 190.28218937 C256.65956997 190.27970408 255.87896584 190.2772188 255.07470703 190.2746582 C254.24884472 190.27969832 253.42298241 190.28473845 252.57209396 190.2899313 C249.80060051 190.30378475 247.02933706 190.30265329 244.2578125 190.30078125 C242.29305895 190.30574291 240.32830665 190.31122662 238.36355591 190.31719971 C233.05495841 190.32933072 227.7464823 190.32577705 222.43788147 190.3172493 C219.13009252 190.3125073 215.82231844 190.31141274 212.51452637 190.31100464 C176.54653164 190.29505395 140.68273566 189.38292449 104.75956726 187.65437126 C89.45795197 186.91983889 74.15023993 186.51828154 58.83604813 186.14949226 C53.99529642 186.03113536 49.15690261 185.87684288 44.31838989 185.68862915 C32.25088355 185.33855679 21.03793803 188.1527322 11.7421875 196.23828125 C8.70859096 199.30588672 6.3266387 201.95935 5.62109375 206.3671875 C6.15916861 210.10597573 7.90742658 211.43473896 10.625 214 C11.54152344 214.87398437 12.45804687 215.74796875 13.40234375 216.6484375 C15.29926459 218.36565005 17.19250246 220.02682758 19.1875 221.625 C22.89529695 224.75602854 25.88555415 228.29080371 29 232 C29.67933594 232.76828125 30.35867188 233.5365625 31.05859375 234.328125 C66.71872959 275.77270355 74.80973014 332.10083687 71.77734375 384.875 C69.77152296 411.54394126 63.60216312 436.80336 54.9375 462 C54.60903076 462.95592041 54.28056152 463.91184082 53.94213867 464.89672852 C51.89579914 470.74027265 49.57904981 476.37419375 47 482 C46.38656792 483.4179035 45.7732899 484.83587367 45.16015625 486.25390625 C28.2405046 524.26754696 4.34973741 558.80164685 -23 590 C-23.65484375 590.75539063 -24.3096875 591.51078125 -24.984375 592.2890625 C-29.58579944 597.58703284 -34.24876336 602.83599419 -39 608 C-39.58724854 608.69931641 -40.17449707 609.39863281 -40.77954102 610.11914062 C-43.59261465 612.50197947 -44.99776618 612.46813263 -48.640625 612.390625 C-49.71054687 612.37773438 -50.78046875 612.36484375 -51.8828125 612.3515625 C-52.99398438 612.31804688 -54.10515625 612.28453125 -55.25 612.25 C-56.37664062 612.23195313 -57.50328125 612.21390625 -58.6640625 612.1953125 C-61.44356896 612.14820222 -64.2213534 612.08243361 -67 612 C-65.1523087 607.97238778 -62.47237578 605.28698904 -59.3125 602.25 C-55.2664174 598.28494709 -51.36404692 594.28742144 -47.69140625 589.96875 C-45.76132158 587.72218493 -43.75581861 585.55416096 -41.75 583.375 C-36.73016193 577.80492673 -32.14343071 571.94292941 -27.5625 566.01269531 C-25.87608174 563.8403778 -24.17363015 561.68129176 -22.46875 559.5234375 C-15.92878752 551.22466787 -9.68188331 542.91488698 -4 534 C-3.32066406 532.97519531 -2.64132812 531.95039062 -1.94140625 530.89453125 C7.7391273 516.17528861 16.4550778 500.81001001 24.06884766 484.92285156 C25.00671991 482.98612322 25.97529637 481.06725328 26.94921875 479.1484375 C37.42070369 458.16681795 44.634953 435.13326938 48.62255859 412.05419922 C49.04174447 409.77280858 49.53112121 407.51056665 50.015625 405.2421875 C59.79684313 356.5674407 52.13393766 299.27712696 24.6875 257.3984375 C16.335846 245.11250525 6.12659357 234.71310494 -4.92456055 224.84375 C-10.49300483 219.80332858 -14.71869843 215.1491982 -15.25 207.3125 C-15.02719948 197.10080964 -8.75178671 188.97635129 -1.93359375 181.8359375 C4.17945197 176.18446613 11.12982616 171.66097544 18 167 C24.73926689 162.59066731 24.73926689 162.59066731 29 156 C29.75547377 150.8795667 29.48645459 148.13090122 26.5 143.875 C21.01967493 137.38447675 14.47802414 133.56915222 7 129.75 C6.00347412 129.23759766 6.00347412 129.23759766 4.98681641 128.71484375 C0.39789084 126.45026706 -3.92076861 124.77246644 -9 124 C-11.34816569 125.08445818 -11.34816569 125.08445818 -13 127.125 C-16.73386279 130.83702734 -20.15646848 132.99578006 -25 135 C-25.65226562 135.2990625 -26.30453125 135.598125 -26.9765625 135.90625 C-37.79497028 140.28223517 -49.26980406 138.72669082 -59.83984375 134.484375 C-64.28255724 132.39756273 -68.17500707 130.07228348 -72 127 C-72.60070312 126.54625 -73.20140625 126.0925 -73.8203125 125.625 C-80.66462136 119.73214215 -86.14638901 110.30710965 -87.36425781 101.30859375 C-87.87050339 93.17472622 -87.5621035 85.00742132 -86 77 C-87.02134033 77.03037354 -88.04268066 77.06074707 -89.0949707 77.09204102 C-92.83773013 77.00382468 -95.86232401 76.42969491 -99.48046875 75.52734375 C-108.98612997 73.42318785 -118.52874925 73.51318575 -128.22338867 73.55395508 C-131.29739618 73.56245822 -134.3695343 73.53361168 -137.44335938 73.50195312 C-153.21079603 73.44459596 -168.12408094 75.15723764 -182.6875 81.625 C-183.46367676 81.96128418 -184.23985352 82.29756836 -185.03955078 82.64404297 C-197.67261915 88.33370605 -209.6553114 95.40487202 -215.16015625 108.63916016 C-216.50712412 112.42554948 -217.29678869 116.23734259 -218 120.1875 C-218.32801139 121.97267713 -218.6561403 123.75783267 -218.984375 125.54296875 C-219.14873047 126.45224121 -219.31308594 127.36151367 -219.48242188 128.29833984 C-219.97311446 130.85966258 -220.54111661 133.38803177 -221.140625 135.92578125 C-227.6545447 164.78078395 -227.01273911 197.61070775 -212.4375 223.875 C-212.04433594 224.59429687 -211.65117187 225.31359375 -211.24609375 226.0546875 C-210.06503924 228.05538041 -210.06503924 228.05538041 -208.34765625 229.6328125 C-207 231 -207 231 -207 233 C-206.2064209 232.97381592 -205.4128418 232.94763184 -204.59521484 232.9206543 C-187.38713843 232.43030729 -171.63705813 233.00159402 -155 238 C-153.95714844 238.28746094 -152.91429687 238.57492187 -151.83984375 238.87109375 C-138.22636775 243.16252133 -125.55036884 251.56888768 -115 261 C-114.05833984 261.74636719 -114.05833984 261.74636719 -113.09765625 262.5078125 C-94.62071711 277.17204992 -83.46784694 301.88790233 -77 324 C-76.65324219 325.16917969 -76.30648438 326.33835937 -75.94921875 327.54296875 C-65.40785374 366.16750695 -66.06339709 408.49919879 -77 447 C-77.33207602 448.66287689 -77.64638089 450.32946605 -77.9375 452 C-79.17405338 458.47563482 -81.30006856 464.71052282 -83.33984375 470.96826172 C-83.95527507 472.86235176 -84.55633319 474.76109527 -85.15625 476.66015625 C-99.35372817 520.73948881 -123.26017393 562.12702854 -152.0546875 598.30078125 C-154.1091478 600.96631444 -154.1091478 600.96631444 -155.4453125 604.16796875 C-157.33718523 607.91844007 -158.44067248 609.69088627 -162 612 C-170.22794714 613.37947575 -178.72530848 612.66626176 -187 612 C-183.01866943 606.60314477 -178.89026778 601.36173835 -174.625 596.1875 C-169.51875719 589.94557084 -164.63594555 583.60208317 -160 577 C-159.443125 576.21882812 -158.88625 575.43765625 -158.3125 574.6328125 C-150.05145576 562.96791207 -142.25424712 551.05501087 -135.01855469 538.72851562 C-134.07706401 537.13077976 -133.12118716 535.54154465 -132.1640625 533.953125 C-116.59296676 507.88386968 -104.3448932 478.44919265 -97 449 C-96.51466797 447.17855469 -96.51466797 447.17855469 -96.01953125 445.3203125 C-88.36947963 415.15997483 -85.15776771 380.4642247 -92 350 C-92 349.01 -92 348.02 -92 347 C-92.66 347 -93.32 347 -94 347 C-94.309375 348.8871875 -94.309375 348.8871875 -94.625 350.8125 C-97.36675791 362.87623482 -105.4345629 373.36608307 -115.5 380.375 C-123.37517057 385.24353802 -130.4551834 388.15544817 -139.75 388.0625 C-140.92046875 388.05347656 -142.0909375 388.04445313 -143.296875 388.03515625 C-144.18890625 388.02355469 -145.0809375 388.01195312 -146 388 C-146.37125 389.8871875 -146.37125 389.8871875 -146.75 391.8125 C-151.54182897 413.07624105 -165.13506464 434.4529687 -183.25 446.8125 C-193.1283548 452.64845542 -201.62422499 455.17115449 -212.9375 455.1875 C-219.13197676 455.1539732 -219.13197676 455.1539732 -224.44921875 457.921875 C-226.18776622 460.53172249 -227.56159389 463.21549192 -229 466 C-231.83676556 469.48664276 -234.92093278 472.72710661 -238 476 C-238.55171875 476.62777344 -239.1034375 477.25554687 -239.671875 477.90234375 C-247.46831996 486.41281956 -258.06684578 491.72329799 -269 495 C-270.05574219 495.3609375 -271.11148438 495.721875 -272.19921875 496.09375 C-276.8709927 497.2076776 -281.15925865 497.21947473 -285.9375 497.125 C-286.81212891 497.11597656 -287.68675781 497.10695313 -288.58789062 497.09765625 C-290.72538064 497.0742957 -292.86272786 497.03843247 -295 497 C-295.28431885 497.60505371 -295.5686377 498.21010742 -295.86157227 498.83349609 C-297.4379114 501.8333746 -299.64523181 504.16333089 -301.9375 506.625 C-302.42621582 507.15134033 -302.91493164 507.67768066 -303.41845703 508.2199707 C-319.09749071 524.89685247 -337.56197527 536.09593406 -358 545.9375 C-358.77682129 546.31519531 -359.55364258 546.69289063 -360.35400391 547.08203125 C-361.10343262 547.43523438 -361.85286133 547.7884375 -362.625 548.15234375 C-363.27726562 548.46163818 -363.92953125 548.77093262 -364.6015625 549.08959961 C-367.96664487 550.36691966 -371.50811686 551.12702921 -375 552 C-375.33 571.8 -375.66 591.6 -376 612 C-380.95 612 -385.9 612 -391 612 C-394.38938127 608.61061873 -394.37683666 608.24388585 -394.38818359 603.73876953 C-394.40214172 602.11433174 -394.40214172 602.11433174 -394.41638184 600.45707703 C-394.41046021 599.27756973 -394.40453857 598.09806244 -394.3984375 596.8828125 C-394.40266724 595.65532791 -394.40689697 594.42784332 -394.41125488 593.16316223 C-394.41658558 589.83904197 -394.40703695 586.51576762 -394.38692474 583.19175339 C-394.37499388 581.12393964 -394.36746236 579.05614895 -394.36090088 576.98831177 C-394.22616973 540.11812567 -392.06086352 503.3748192 -382.6484375 467.546875 C-382.01602228 465.06293089 -381.48784367 462.57842165 -381 460.0625 C-378.73102741 448.45938001 -375.71914531 437.21817574 -372 426 C-371.72027344 425.15147461 -371.44054687 424.30294922 -371.15234375 423.42871094 C-364.73774002 404.10853543 -357.46507619 385.04847406 -348 367 C-347.13233844 365.23687994 -346.2647976 363.47369729 -345.40087891 361.70874023 C-342.64974228 356.10879791 -339.72880724 350.70578944 -336.4453125 345.40234375 C-334.9630124 342.93852061 -333.63899778 340.42566574 -332.3125 337.875 C-316.08231443 307.93745564 -291.39231685 279.15220387 -264 259 C-263.11699219 258.34515625 -262.23398437 257.6903125 -261.32421875 257.015625 C-237.72068584 240 -237.72068584 240 -226 240 C-226.79664063 238.56720703 -226.79664063 238.56720703 -227.609375 237.10546875 C-231.74102936 229.58990443 -235.59886857 222.26945678 -238 214 C-238.21285645 213.3287207 -238.42571289 212.65744141 -238.64501953 211.96582031 C-245.84204347 188.70928012 -246.24891832 157.03543951 -240.4375 133.3125 C-239.55243009 129.64094203 -239 126.80066401 -239 123 C-253.70667687 137.36031616 -253.70667687 137.36031616 -267 153 C-268.47633621 154.77319376 -269.95560375 156.54395025 -271.4375 158.3125 C-291.97859356 183.48156958 -309.43257744 213.04477363 -322 243 C-322.46019531 244.03898437 -322.92039062 245.07796875 -323.39453125 246.1484375 C-327.07654355 254.52679055 -330.22311607 263.01353248 -333.19384766 271.66699219 C-334.04809177 274.13917776 -334.91869828 276.60514109 -335.79296875 279.0703125 C-341.71394562 295.33700649 -341.71394562 295.33700649 -346.0625 312.0625 C-346.74590275 315.32364996 -347.46736496 317.66997576 -350 320 C-350.99 320 -351.98 320 -353 320 C-353.17771514 312.77094307 -352.68121224 305.79151537 -351.75 298.625 C-351.5497522 297.06386475 -351.5497522 297.06386475 -351.34545898 295.47119141 C-347.90469703 269.67038929 -340.58883374 245.15331661 -331 221 C-330.69707031 220.18917969 -330.39414062 219.37835938 -330.08203125 218.54296875 C-327.52675346 211.81444253 -324.31528732 205.45353247 -321.046875 199.05078125 C-319.79992888 196.60568755 -318.60956674 194.15899098 -317.453125 191.66796875 C-308.79192348 173.20710882 -296.34731797 156.15513138 -283.75 140.1875 C-283.29383301 139.60911377 -282.83766602 139.03072754 -282.36767578 138.43481445 C-275.03273563 129.20325056 -267.46462152 120.25482445 -259.0234375 112.01171875 C-251.97819955 105.00728333 -245.97965118 97.2434797 -240.75 88.8125 C-236.59757429 82.19971633 -231.85195969 76.10309395 -227 70 C-226.2678125 69.071875 -225.535625 68.14375 -224.78125 67.1875 C-206.04863431 43.83960218 -184.13576268 24.69952906 -158 10 C-156.92621094 9.37609375 -155.85242188 8.7521875 -154.74609375 8.109375 C-147.06860922 3.77607085 -139.20304815 0.60186221 -130.91235352 -2.31274414 C-128.97072062 -3.01052234 -127.05416814 -3.76013458 -125.1328125 -4.51171875 C-87.06902027 -18.80698221 -36.72686509 -17.45953302 0 0 Z " fill="#223A49" transform="translate(419,48)"/>
<path d="M0 0 C0.66 0 1.32 0 2 0 C10.9368631 33.55313334 6.25685511 71.90873645 -3 105 C-3.37166906 106.40219138 -3.74277843 107.80453126 -4.11328125 109.20703125 C-14.59912559 147.76802582 -33.37631302 184.21622087 -56 217 C-56.43924805 217.63760254 -56.87849609 218.27520508 -57.33105469 218.93212891 C-66.34592235 231.9783575 -75.95837512 244.43231431 -86.06640625 256.6484375 C-87.23963157 258.0752691 -88.39785174 259.51486696 -89.52734375 260.9765625 C-91.90552087 264.02699029 -93.18189856 265.41605403 -97 266 C-99.51180287 266.07980237 -101.99351632 266.10641335 -104.5043335 266.08229065 C-105.64264583 266.07744696 -105.64264583 266.07744696 -106.80395436 266.07250541 C-109.34819532 266.06043623 -111.89232808 266.04106214 -114.43652344 266.02172852 C-116.25974798 266.0115851 -118.08297507 266.0018915 -119.90620422 265.99261475 C-124.85832385 265.96614003 -129.81038419 265.93335918 -134.76245785 265.89946485 C-139.93677137 265.86511565 -145.11111665 265.83654006 -150.28546143 265.80735779 C-160.08495407 265.75121036 -169.88440694 265.68985398 -179.68385625 265.62663645 C-190.83969892 265.5549215 -201.99557344 265.48899783 -213.15145445 265.42356598 C-236.10101097 265.28883145 -259.05051776 265.14680671 -282 265 C-282.0255305 258.22307141 -282.0429421 251.44615541 -282.05493164 244.66918945 C-282.05993441 242.36775245 -282.06673872 240.06631858 -282.07543945 237.76489258 C-282.08768381 234.44091005 -282.09326903 231.11696986 -282.09765625 227.79296875 C-282.10281754 226.7779277 -282.10797882 225.76288666 -282.11329651 224.71708679 C-282.113807 218.09228177 -281.71202624 211.58615439 -281 205 C-280.06542969 204.59910156 -279.13085938 204.19820312 -278.16796875 203.78515625 C-233.2655033 184.86402824 -233.2655033 184.86402824 -201 150 C-199.8140625 149.98582031 -198.628125 149.97164062 -197.40625 149.95703125 C-174.4331915 149.39840133 -157.55831043 141.92040181 -141.3671875 125.296875 C-137.32024833 120.97208627 -134.06319068 117.2519117 -131.5625 111.875 C-130.18359375 109.66015625 -130.18359375 109.66015625 -128 108 C-124.23622697 107.22694908 -120.42197461 107.31762935 -116.59399414 107.30249023 C-103.21893042 107.15039921 -92.06226811 101.67991179 -82 93 C-81.23429688 92.34515625 -80.46859375 91.6903125 -79.6796875 91.015625 C-65.51867682 77.89078583 -56.90390106 59.38962896 -52 41 C-51.17757812 40.96261719 -50.35515625 40.92523438 -49.5078125 40.88671875 C-35.07604745 40.03681111 -22.86032154 36.06204203 -12.69140625 25.20703125 C-6.91026126 17.66350488 -2.5253942 9.15455396 0 0 Z " fill="#F4F4F4" transform="translate(325,395)"/>
<path d="M0 0 C3.68630444 2.64452275 6.1994179 5.45259601 9 9 C9.99 9.66 10.98 10.32 12 11 C12 11.66 12 12.32 12 13 C12.598125 14.175625 13.19625 15.35125 13.8125 16.5625 C19.59449455 28.08533612 21.02504532 39.5239631 17 52 C39.34423835 52.03389893 60.68248168 50.7982608 78.875 36.4375 C79.59429687 35.87933594 80.31359375 35.32117188 81.0546875 34.74609375 C83.08276713 33.04433725 83.08276713 33.04433725 84.6328125 30.78515625 C85.08398438 30.19605469 85.53515625 29.60695312 86 29 C86.66 29 87.32 29 88 29 C88 29.66 88 30.32 88 31 C88.54785156 31.13535156 89.09570312 31.27070313 89.66015625 31.41015625 C94.89224421 32.83090209 99.69651233 34.70408901 104.58984375 37.0390625 C105.92328459 37.67000435 107.25721483 38.29991261 108.59155273 38.92895508 C109.30286346 39.26448395 110.01417419 39.60001282 110.74703979 39.94570923 C118.29558356 43.47811074 125.90640241 46.87838404 133.5 50.3125 C134.42520447 50.7314151 135.35040894 51.1503302 136.3036499 51.5819397 C146.87586695 56.36754634 157.45893423 61.11419564 168.125 65.6875 C175.57882534 68.8866246 182.85259169 72.32100398 190.0703125 76.01953125 C193.59246851 77.81631281 197.16441834 79.48866271 200.75244141 81.14916992 C223.81042562 91.84771395 246.9257976 104.30094428 267 120 C268.010625 120.7734375 269.02125 121.546875 270.0625 122.34375 C277.72333795 128.36297982 277.72333795 128.36297982 278.9296875 131.140625 C278.95289063 131.75421875 278.97609375 132.3678125 279 133 C276.47277377 135.52722623 274.88816856 135.2476924 271.4401741 135.28218937 C270.65956997 135.27970408 269.87896584 135.2772188 269.07470703 135.2746582 C268.24884472 135.27969832 267.42298241 135.28473845 266.57209396 135.2899313 C263.80060051 135.30378475 261.02933706 135.30265329 258.2578125 135.30078125 C256.29305895 135.30574291 254.32830665 135.31122662 252.36355591 135.31719971 C247.05495841 135.32933072 241.7464823 135.32577705 236.43788147 135.3172493 C233.13009252 135.3125073 229.82231844 135.31141274 226.51452637 135.31100464 C190.54653164 135.29505395 154.68273566 134.38292449 118.75956726 132.65437126 C103.45795197 131.91983889 88.15023993 131.51828154 72.83604813 131.14949226 C67.99529642 131.03113536 63.15690261 130.87684288 58.31838989 130.68862915 C46.25088355 130.33855679 35.03793803 133.1527322 25.7421875 141.23828125 C22.70859096 144.30588672 20.3266387 146.95935 19.62109375 151.3671875 C20.15916861 155.10597573 21.90742658 156.43473896 24.625 159 C25.54152344 159.87398437 26.45804687 160.74796875 27.40234375 161.6484375 C29.29926459 163.36565005 31.19250246 165.02682758 33.1875 166.625 C36.89529695 169.75602854 39.88555415 173.29080371 43 177 C44.01900391 178.15242188 44.01900391 178.15242188 45.05859375 179.328125 C80.71872959 220.77270355 88.80973014 277.10083687 85.77734375 329.875 C83.77152296 356.54394126 77.60216312 381.80336 68.9375 407 C68.60903076 407.95592041 68.28056152 408.91184082 67.94213867 409.89672852 C65.89579914 415.74027265 63.57904981 421.37419375 61 427 C60.38656792 428.4179035 59.7732899 429.83587367 59.16015625 431.25390625 C42.2405046 469.26754696 18.34973741 503.80164685 -9 535 C-9.65484375 535.75539063 -10.3096875 536.51078125 -10.984375 537.2890625 C-15.58579944 542.58703284 -20.24876336 547.83599419 -25 553 C-25.8808728 554.04897461 -25.8808728 554.04897461 -26.77954102 555.11914062 C-29.59261465 557.50197947 -30.99776618 557.46813263 -34.640625 557.390625 C-35.71054687 557.37773438 -36.78046875 557.36484375 -37.8828125 557.3515625 C-38.99398437 557.31804688 -40.10515625 557.28453125 -41.25 557.25 C-42.37664062 557.23195313 -43.50328125 557.21390625 -44.6640625 557.1953125 C-47.44356896 557.14820222 -50.2213534 557.08243361 -53 557 C-51.1523087 552.97238778 -48.47237578 550.28698904 -45.3125 547.25 C-41.2664174 543.28494709 -37.36404692 539.28742144 -33.69140625 534.96875 C-31.76132158 532.72218493 -29.75581861 530.55416096 -27.75 528.375 C-22.73016193 522.80492673 -18.14343071 516.94292941 -13.5625 511.01269531 C-11.87608174 508.8403778 -10.17363015 506.68129176 -8.46875 504.5234375 C-1.92878752 496.22466787 4.31811669 487.91488698 10 479 C10.67933594 477.97519531 11.35867188 476.95039062 12.05859375 475.89453125 C21.7391273 461.17528861 30.4550778 445.81001001 38.06884766 429.92285156 C39.00671991 427.98612322 39.97529637 426.06725328 40.94921875 424.1484375 C51.42070369 403.16681795 58.634953 380.13326938 62.62255859 357.05419922 C63.04174447 354.77280858 63.53112121 352.51056665 64.015625 350.2421875 C73.79684313 301.5674407 66.13393766 244.27712696 38.6875 202.3984375 C30.335846 190.11250525 20.12659357 179.71310494 9.07543945 169.84375 C3.50699517 164.80332858 -0.71869843 160.1491982 -1.25 152.3125 C-1.02719948 142.10080964 5.24821329 133.97635129 12.06640625 126.8359375 C18.17945197 121.18446613 25.12982616 116.66097544 32 112 C38.73926689 107.59066731 38.73926689 107.59066731 43 101 C43.75547377 95.8795667 43.48645459 93.13090122 40.5 88.875 C35.01967493 82.38447675 28.47802414 78.56915222 21 74.75 C20.00347412 74.23759766 20.00347412 74.23759766 18.98681641 73.71484375 C14.39789084 71.45026706 10.07923139 69.77246644 5 69 C2.65183431 70.08445818 2.65183431 70.08445818 1 72.125 C-2.73386279 75.83702734 -6.15646848 77.99578006 -11 80 C-11.65226562 80.2990625 -12.30453125 80.598125 -12.9765625 80.90625 C-23.79497028 85.28223517 -35.26980406 83.72669082 -45.83984375 79.484375 C-50.28255724 77.39756273 -54.17500707 75.07228348 -58 72 C-58.60070312 71.54625 -59.20140625 71.0925 -59.8203125 70.625 C-67.50310536 64.0102187 -72.81889599 53.75076257 -73.609375 43.67578125 C-74.11769714 28.50182468 -71.7228163 15.41566728 -61.08203125 3.9296875 C-56.54654053 -0.25274107 -51.56450102 -3.36722915 -46 -6 C-45.34902344 -6.32097656 -44.69804687 -6.64195313 -44.02734375 -6.97265625 C-29.1641478 -13.12985688 -12.68435341 -8.54667663 0 0 Z " fill="#233A49" transform="translate(405,103)"/>
<path d="M0 0 C6.73592613 5.00559648 12.61817403 11.56300997 14.5546875 19.8984375 C15.64227662 29.81103547 14.99715393 38.24854419 9.5546875 46.8984375 C9.14347656 47.56359375 8.73226562 48.22875 8.30859375 48.9140625 C3.63378518 55.29510684 -4.12058557 58.45686186 -11.4453125 60.8984375 C-22.60690938 62.00825537 -30.98839734 59.71982613 -39.7578125 52.7109375 C-46.07599582 46.79576587 -50.46091854 39.25274357 -50.83984375 30.5546875 C-51.06532516 19.5675932 -48.1933137 11.64074743 -40.6328125 3.3984375 C-29.53708752 -6.55660547 -12.85509264 -7.58486076 0 0 Z " fill="#F27B4E" transform="translate(395.4453125,112.1015625)"/>
<path d="M0 0 C3.68630444 2.64452275 6.1994179 5.45259601 9 9 C9.99 9.66 10.98 10.32 12 11 C12 11.66 12 12.32 12 13 C12.598125 14.175625 13.19625 15.35125 13.8125 16.5625 C19.59449455 28.08533612 21.02504532 39.5239631 17 52 C20.3 52 23.6 52 27 52 C27 52.33 27 52.66 27 53 C26.25234375 52.979375 25.5046875 52.95875 24.734375 52.9375 C21.65076699 53.00207818 18.98055235 53.19025456 16 54 C13.84034013 56.38230522 13.00264635 58.98066725 12 62 C9.52784623 66.73829473 9.52784623 66.73829473 7.140625 67.921875 C4.75843474 69.12166426 3.18355156 70.54531692 1.25 72.375 C-2.5812672 75.78843954 -6.27471141 78.04470817 -11 80 C-11.65226562 80.2990625 -12.30453125 80.598125 -12.9765625 80.90625 C-23.79497028 85.28223517 -35.26980406 83.72669082 -45.83984375 79.484375 C-50.28255724 77.39756273 -54.17500707 75.07228348 -58 72 C-58.60070312 71.54625 -59.20140625 71.0925 -59.8203125 70.625 C-67.50310536 64.0102187 -72.81889599 53.75076257 -73.609375 43.67578125 C-74.11769714 28.50182468 -71.7228163 15.41566728 -61.08203125 3.9296875 C-56.54654053 -0.25274107 -51.56450102 -3.36722915 -46 -6 C-45.34902344 -6.32097656 -44.69804687 -6.64195313 -44.02734375 -6.97265625 C-29.1641478 -13.12985688 -12.68435341 -8.54667663 0 0 Z M-55 18 C-60.60462082 26.37283986 -61.349536 35.26406173 -60 45 C-56.77680166 55.0100737 -51.04772826 62.10450861 -41.75 66.875 C-33.90267068 70.55495878 -26.2425103 71.40852988 -17.7578125 69.12890625 C-7.67446114 65.2161554 -1.42613618 60.0929888 3.08984375 50.234375 C6.20312387 42.59147272 6.32781261 33.46489661 3.9765625 25.55859375 C0.71149889 18.49631527 -3.64409564 13.45127308 -10 9 C-10.64195312 8.54625 -11.28390625 8.0925 -11.9453125 7.625 C-26.65208302 -0.67999983 -45.24976283 5.41765403 -55 18 Z " fill="#192934" transform="translate(405,103)"/>
<path d="M0 0 C12.70052004 0.2421243 24.68771035 3.11835399 37 6 C38.55336651 6.35945671 40.10675037 6.71883846 41.66015625 7.078125 C45.10206858 7.87880682 48.53936428 8.69783338 51.97607422 9.52050781 C54.04563019 10.01081034 56.11791462 10.48757266 58.19140625 10.9609375 C66.14377152 12.78404199 74.01546887 14.79121143 81.8671875 17.00805664 C87.87309581 18.7000862 93.89853597 20.30521027 99.9375 21.875 C100.89551514 22.12435303 101.85353027 22.37370605 102.84057617 22.63061523 C108.09905101 23.99609942 113.3607173 25.34849264 118.625 26.69140625 C131.49341214 29.98377805 144.27526207 33.4721372 157.01171875 37.2421875 C163.30260577 39.10069348 169.61777086 40.86750159 175.9375 42.625 C183.0532136 44.60730489 190.16364774 46.60236735 197.25 48.6875 C197.9217627 48.88512939 198.59352539 49.08275879 199.28564453 49.28637695 C204.66924493 50.881344 210.02178536 52.57043751 215.36328125 54.30078125 C218.18975119 55.17088366 218.18975119 55.17088366 222 55 C221.34 56.32 220.68 57.64 220 59 C212.62742556 59.32464177 206.04203889 58.43064755 198.875 56.75 C197.86727539 56.52183594 196.85955078 56.29367188 195.82128906 56.05859375 C185.93071194 53.80113337 176.0912111 51.36013217 166.2890625 48.74609375 C164.65110613 48.30965384 163.0130848 47.87345762 161.375 47.4375 C160.56643555 47.22222656 159.75787109 47.00695312 158.92480469 46.78515625 C153.19213573 45.27447326 147.43536774 44.00231223 141.62890625 42.8046875 C137.36459453 41.85910277 133.15592911 40.75525149 128.9375 39.625 C122.33412128 37.85660394 115.71751318 36.18799234 109.0625 34.625 C91.08252009 30.39332255 73.17934702 25.85897106 55.32324219 21.13354492 C48.70409645 19.39959881 42.05524504 17.85429903 35.375 16.375 C27.4317942 14.61247702 19.72388219 12.5746274 12 10 C11.11699219 9.73316406 10.23398437 9.46632812 9.32421875 9.19140625 C8.11185547 8.81822266 8.11185547 8.81822266 6.875 8.4375 C5.85019531 8.12619141 5.85019531 8.12619141 4.8046875 7.80859375 C2.62933837 6.83392434 1.44135186 5.9024054 0 4 C0 2.68 0 1.36 0 0 Z " fill="#16242D" transform="translate(460,176)"/>
<path d="M0 0 C4.52988908 2.38924028 7.22691074 5.45382149 9.5 10 C10.67271978 17.03631867 10.16222026 22.14488893 6 28 C0.57802262 32.31545138 -4.12166357 33.68403346 -11 33 C-16.87352702 31.2080765 -19.55151663 28.86844711 -23 24 C-24.81205684 18.56382947 -24.7099836 13.01784814 -22.8125 7.625 C-17.18662192 -0.52282342 -9.29321874 -1.33699609 0 0 Z " fill="#1A2832" transform="translate(385,124)"/>
<path d="M0 0 C6.68636809 4.96876895 12.71157953 11.58082203 14.5546875 19.8984375 C14.9750773 25.23047011 14.79042387 30.5616279 14.5546875 35.8984375 C14.2246875 35.8984375 13.8946875 35.8984375 13.5546875 35.8984375 C13.4103125 34.7846875 13.2659375 33.6709375 13.1171875 32.5234375 C12.77096715 29.07701703 12.77096715 29.07701703 11.5546875 26.8984375 C11.40089917 25.12987174 11.28041813 23.35831698 11.1796875 21.5859375 C10.83236905 17.23591628 10.20434111 14.46970976 7.5546875 10.8984375 C7.5546875 10.2384375 7.5546875 9.5784375 7.5546875 8.8984375 C6.8946875 8.8984375 6.2346875 8.8984375 5.5546875 8.8984375 C3.4296875 7.0234375 3.4296875 7.0234375 1.5546875 4.8984375 C1.5546875 4.2384375 1.5546875 3.5784375 1.5546875 2.8984375 C0.5646875 2.8984375 -0.4253125 2.8984375 -1.4453125 2.8984375 C-1.4453125 2.2384375 -1.4453125 1.5784375 -1.4453125 0.8984375 C-2.61900391 0.69927734 -2.61900391 0.69927734 -3.81640625 0.49609375 C-4.82832031 0.31949219 -5.84023438 0.14289063 -6.8828125 -0.0390625 C-7.89214844 -0.21308594 -8.90148437 -0.38710937 -9.94140625 -0.56640625 C-12.4453125 -1.1015625 -12.4453125 -1.1015625 -13.4453125 -2.1015625 C-17.64119239 -2.2629425 -21.35912488 -1.9909458 -25.4453125 -1.1015625 C-26.23550781 -0.94558594 -27.02570313 -0.78960937 -27.83984375 -0.62890625 C-34.83260086 1.0769198 -39.13922465 4.12391416 -43.4453125 9.8984375 C-45.04638048 12.82016043 -46.34010517 15.75732194 -47.4453125 18.8984375 C-48.2778529 16.55171425 -48.62774987 15.35928191 -47.6953125 13.00390625 C-36.84866906 -3.63891227 -18.26866849 -10.77902046 0 0 Z " fill="#D08462" transform="translate(395.4453125,112.1015625)"/>
<path d="M0 0 C4.90546929 1.92714865 7.16276127 5.74414191 10 10 C10.1953125 12.69921875 10.1953125 12.69921875 10.125 15.6875 C10.10695313 16.68136719 10.08890625 17.67523438 10.0703125 18.69921875 C10.04710937 19.45847656 10.02390625 20.21773437 10 21 C9.34 21 8.68 21 8 21 C7.6596875 22.36125 7.6596875 22.36125 7.3125 23.75 C5.79150039 27.51628476 4.38330705 28.82501689 1 31 C-1.3125 31.75 -1.3125 31.75 -3 32 C-3 32.66 -3 33.32 -3 34 C-6.96 34 -10.92 34 -15 34 C-15 33.34 -15 32.68 -15 32 C-15.99 32 -16.98 32 -18 32 C-17.67 31.34 -17.34 30.68 -17 30 C-16.505 30.165 -16.01 30.33 -15.5 30.5 C-9.28717741 31.74256452 -4.3117715 31.48421522 1.234375 28.39453125 C5.47083195 25.04848007 6.79945895 20.63297715 7.4375 15.4375 C6.64115171 9.18047772 4.12517819 4.69416828 0 0 Z " fill="#D08061" transform="translate(387,125)"/>
<path d="M0 0 C0.66 0 1.32 0 2 0 C2 0.66 2 1.32 2 2 C2.99 2 3.98 2 5 2 C6.01866229 3.65532623 7.01810813 5.32260138 8 7 C8.99 7.33 9.98 7.66 11 8 C11 8.66 11 9.32 11 10 C15.455 10.99 15.455 10.99 20 12 C20 12.66 20 13.32 20 14 C22.29199177 13.85936865 24.58359186 13.71234057 26.875 13.5625 C28.15117187 13.48128906 29.42734375 13.40007812 30.7421875 13.31640625 C33.88300152 13.20793973 33.88300152 13.20793973 36 12 C37.99960012 11.960008 40.00047242 11.95653201 42 12 C38.13170289 15.86829711 33.09516634 16.32594059 27.8125 16.4375 C17.94005828 16.25759218 10.77682882 12.24400599 3.55859375 5.74609375 C1.93998621 3.9327665 0.97495213 2.21668221 0 0 Z " fill="#BC785C" transform="translate(350,157)"/>
<path d="M0 0 C0.99 0.33 1.98 0.66 3 1 C-0.05023004 4.12446804 -3.1102572 7.23890149 -6.1796875 10.34448242 C-7.22214157 11.40200929 -8.26188549 12.4622149 -9.29882812 13.52514648 C-10.79110035 15.05386789 -12.29290176 16.57264335 -13.796875 18.08984375 C-14.69760742 19.00628662 -15.59833984 19.92272949 -16.52636719 20.86694336 C-18.84300538 22.86462081 -20.01671424 23.65600889 -23 24 C-19.38425686 18.77725991 -15.4200473 14.22705062 -10.9375 9.75 C-10.4312207 9.24307617 -9.92494141 8.73615234 -9.40332031 8.21386719 C-3.46531276 2.36085389 -3.46531276 2.36085389 0 0 Z " fill="#2E3F4D" transform="translate(223,85)"/>
<path d="M0 0 C-2.95183101 2.95183101 -5.95511947 3.08663988 -10 4 C-10 7.63 -10 11.26 -10 15 C-10.33 15 -10.66 15 -11 15 C-11.22245393 13.39773045 -11.42746669 11.79303233 -11.625 10.1875 C-11.74101563 9.29417969 -11.85703125 8.40085937 -11.9765625 7.48046875 C-12 5 -12 5 -10 2 C-3.66906475 -1.22302158 -3.66906475 -1.22302158 0 0 Z " fill="#364652" transform="translate(54,596)"/>
<path d="M0 0 C2.24973447 -0.054138 4.49984383 -0.09285491 6.75 -0.125 C8.00296875 -0.14820312 9.2559375 -0.17140625 10.546875 -0.1953125 C13.72820492 -0.01537302 15.36521896 0.31001418 18 2 C18 2.33 18 2.66 18 3 C15.66705225 3.04241723 13.33297433 3.04092937 11 3 C10.67 2.67 10.34 2.34 10 2 C8.31816052 1.76712992 6.6287584 1.58735834 4.9375 1.4375 C4.01839844 1.35371094 3.09929687 1.26992187 2.15234375 1.18359375 C1.08693359 1.09271484 1.08693359 1.09271484 0 1 C0 0.67 0 0.34 0 0 Z " fill="#D88C65" transform="translate(372,108)"/>
<path d="M0 0 C-2.81656132 2.81656132 -4.61601605 2.98950864 -8.57421875 3.09765625 C-9.94534658 3.09103244 -11.31645717 3.07914198 -12.6875 3.0625 C-13.38939453 3.05798828 -14.09128906 3.05347656 -14.81445312 3.04882812 C-16.54300538 3.03706927 -18.27151365 3.01913454 -20 3 C-20 2.67 -20 2.34 -20 2 C-19.15695312 1.93941406 -18.31390625 1.87882813 -17.4453125 1.81640625 C-16.34960938 1.73261719 -15.25390625 1.64882812 -14.125 1.5625 C-13.03445313 1.48128906 -11.94390625 1.40007812 -10.8203125 1.31640625 C-6.95680329 0.88296547 -4.04657955 -0.08796912 0 0 Z " fill="#D88463" transform="translate(392,169)"/>
<path d="M0 0 C1.07765625 0.01804687 2.1553125 0.03609375 3.265625 0.0546875 C4.49539063 0.08949219 4.49539063 0.08949219 5.75 0.125 C5.75 0.455 5.75 0.785 5.75 1.125 C4.53763672 1.28935547 4.53763672 1.28935547 3.30078125 1.45703125 C1.69783203 1.69486328 1.69783203 1.69486328 0.0625 1.9375 C-0.99324219 2.08832031 -2.04898437 2.23914063 -3.13671875 2.39453125 C-6.35193753 3.14891759 -8.53100323 4.28374987 -11.25 6.125 C-11 4.25 -11 4.25 -10.25 2.125 C-6.89706585 -0.15246471 -3.97157137 -0.08633851 0 0 Z " fill="#B87557" transform="translate(375.25,122.875)"/>
<path d="M0 0 C0.33 0 0.66 0 1 0 C1 5.28 1 10.56 1 16 C0.67 16 0.34 16 0 16 C-0.144375 14.88625 -0.28875 13.7725 -0.4375 12.625 C-0.78372035 9.17857953 -0.78372035 9.17857953 -2 7 C-1.39239518 4.6505947 -0.72870472 2.31470912 0 0 Z " fill="#CC7B58" transform="translate(409,132)"/>
<path d="M0 0 C5.03985731 0.44469329 7.37634988 2.71343362 11 6 C10.34 6.66 9.68 7.32 9 8 C7.87411986 7.04270084 6.7493285 6.08412105 5.625 5.125 C4.99851562 4.59132813 4.37203125 4.05765625 3.7265625 3.5078125 C2.44163349 2.38567993 1.20628025 1.20628025 0 0 Z " fill="#2C2828" transform="translate(393,111)"/>
<path d="M0 0 C0.66 0.33 1.32 0.66 2 1 C0.02 3.31 -1.96 5.62 -4 8 C-4.33 7.34 -4.66 6.68 -5 6 C-3.86695008 2.60085025 -2.87481525 1.94745549 0 0 Z " fill="#232429" transform="translate(369,125)"/>
<path d="M0 0 C0.66 0.33 1.32 0.66 2 1 C1.34 3.97 0.68 6.94 0 10 C-2 6 -2 6 -1.125 2.75 C-0.75375 1.8425 -0.3825 0.935 0 0 Z " fill="#404D5A" transform="translate(72,354)"/>
</svg>
